<?xml version="1.0" standalone="no"?>
<!DOCTYPE svg PUBLIC "-//W3C//DTD SVG 20010904//EN"
 "http://www.w3.org/TR/2001/REC-SVG-20010904/DTD/svg10.dtd">
<svg version="1.0" xmlns="http://www.w3.org/2000/svg"
 width="1236.000000pt" height="1235.000000pt" viewBox="0 0 1236.000000 1235.000000"
 preserveAspectRatio="xMidYMid meet">

<g transform="translate(0.000000,1235.000000) scale(0.100000,-0.100000)"
fill="#000000" stroke="none">
<path d="M0 10736 c0 -1362 2 -1615 14 -1619 7 -3 17 -2 22 3 5 5 23 10 39 12
17 1 39 11 49 21 11 9 25 17 30 17 6 0 4 -5 -4 -10 -8 -5 -10 -10 -4 -10 6 0
17 7 24 15 7 9 19 14 25 11 7 -2 22 2 34 10 11 8 21 12 21 8 0 -5 5 -3 12 4
19 19 32 14 17 -5 -7 -10 -2 -8 12 5 14 12 28 20 31 17 3 -3 11 2 19 12 12 14
12 16 0 8 -10 -5 -12 -4 -7 4 4 6 12 9 17 5 15 -9 59 -12 59 -5 0 4 9 7 20 8
13 1 18 -2 13 -10 -4 -7 0 -6 10 2 14 11 17 11 17 0 0 -9 3 -10 8 -4 4 6 16
11 27 11 11 0 23 -5 27 -11 5 -6 8 -5 8 4 0 9 4 10 12 4 11 -8 33 -10 41 -3 5
4 44 9 82 11 22 1 53 9 69 16 18 10 26 11 21 3 -6 -9 -2 -9 12 -1 11 6 23 7
27 4 3 -3 6 -2 6 4 0 6 6 10 13 10 6 -1 48 3 92 8 44 5 83 9 87 9 3 1 9 4 13
8 4 4 13 4 21 1 8 -3 14 1 14 8 0 7 3 9 6 6 4 -3 16 -1 28 5 11 7 24 12 28 13
3 0 10 3 13 7 4 4 17 3 28 -3 12 -7 17 -7 13 -1 -6 9 48 29 67 24 4 -1 7 2 7
8 0 12 22 9 32 -5 5 -6 8 -3 8 7 0 11 6 16 20 13 13 -2 20 2 20 11 0 9 -5 12
-12 8 -7 -4 -2 5 11 19 20 23 41 28 41 11 0 -3 -5 -2 -12 2 -7 5 -8 3 -3 -6 6
-9 4 -11 -5 -5 -9 6 -11 4 -5 -5 6 -9 4 -11 -4 -5 -10 6 -11 3 -2 -14 7 -11
14 -21 17 -21 3 0 2 5 -1 11 -4 5 1 19 10 29 9 10 14 23 11 28 -3 5 14 7 42 5
26 -3 70 -5 99 -5 35 -1 50 -5 46 -12 -4 -6 0 -5 9 2 12 9 18 10 23 2 4 -6 12
-7 18 -2 10 7 177 9 185 2 1 -2 6 -3 11 -4 5 0 12 -4 15 -7 6 -5 -3 -8 -41
-10 -10 -1 -45 -8 -78 -16 -33 -8 -71 -16 -85 -18 -14 -2 -25 -4 -25 -5 0 -2
-25 -7 -75 -15 -25 -3 -58 -9 -75 -12 -16 -3 -46 -7 -65 -9 -19 -1 -36 -4 -37
-5 -4 -2 -14 -5 -58 -14 -22 -4 -46 -13 -54 -19 -12 -9 -13 -8 -7 2 7 11 4 12
-11 3 -11 -5 -44 -13 -74 -16 -93 -9 -129 -17 -124 -24 2 -5 -21 -14 -53 -21
-31 -8 -73 -20 -92 -28 -34 -15 -58 -19 -112 -21 -15 -1 -34 -8 -42 -17 -9 -8
-16 -12 -16 -8 0 3 -8 0 -17 -7 -15 -12 -16 -12 -8 1 6 12 5 12 -5 3 -7 -6
-18 -9 -25 -7 -8 3 -15 -7 -19 -27 -8 -43 -6 -70 4 -39 7 23 8 23 9 3 1 -12 5
-24 10 -27 5 -4 7 4 5 16 -4 21 -4 22 5 3 16 -33 14 -50 -4 -35 -8 7 -15 9
-15 5 0 -4 -6 -2 -13 4 -8 6 -17 8 -20 4 -4 -3 -9 1 -13 10 -3 10 -12 13 -22
9 -13 -4 -15 -3 -7 9 6 8 2 6 -7 -4 -10 -11 -18 -15 -18 -10 0 10 -195 9 -236
-1 -19 -5 -24 -4 -18 6 6 10 4 10 -7 2 -8 -6 -30 -10 -51 -10 -20 1 -34 -2
-32 -5 2 -4 -3 -10 -12 -13 -10 -4 -13 -2 -8 7 6 9 5 9 -7 0 -9 -7 -47 -15
-85 -19 -38 -3 -70 -6 -71 -8 -2 -1 -2 -1092 -1 -2424 l3 -2420 75 35 c41 20
81 37 87 39 7 1 20 9 29 18 8 9 22 17 30 17 24 2 16 -1 150 60 23 11 44 19 48
19 3 0 25 9 49 19 43 20 167 70 247 100 25 9 61 26 80 36 19 11 37 19 40 20
19 2 69 29 65 35 -2 4 7 6 20 4 16 -1 23 2 18 9 -4 7 0 8 12 3 16 -6 16 -4 4
11 -8 10 -9 14 -2 10 7 -5 17 1 23 13 6 11 15 18 20 15 6 -3 7 1 3 10 -5 13
-7 14 -14 3 -7 -10 -9 -10 -10 2 -1 8 -1 18 0 22 1 9 -126 147 -132 142 -2 -2
-4 3 -4 11 0 18 141 -56 169 -89 9 -11 17 -17 18 -13 0 4 10 -2 22 -13 21 -19
23 -20 30 -3 3 10 7 362 7 783 1 827 1 822 55 928 28 53 93 120 148 150 20 12
66 30 103 41 61 19 92 21 362 21 270 0 302 -2 365 -21 169 -50 264 -159 299
-343 5 -27 9 -151 9 -277 0 -224 0 -228 -22 -243 -33 -24 -379 -23 -402 0 -13
13 -16 43 -16 170 0 250 -14 267 -221 268 -83 0 -136 -5 -158 -13 -63 -27 -61
0 -61 -760 0 -607 4 -742 22 -691 1 5 12 11 23 13 11 2 30 8 41 15 12 6 24 8
28 5 3 -3 6 -1 6 5 0 7 7 12 16 12 14 0 204 77 245 99 8 5 47 21 85 36 38 15
94 39 124 52 30 14 71 32 90 40 19 9 43 20 52 24 9 5 57 24 107 43 49 20 107
44 128 55 21 11 61 29 88 41 28 12 68 30 91 41 22 10 45 19 51 19 7 0 18 7 27
15 8 8 23 16 33 18 10 2 37 12 60 21 23 10 45 17 49 16 4 -1 11 4 15 12 6 9 9
7 9 -9 0 -13 -5 -23 -10 -23 -6 0 -30 -9 -52 -20 -23 -11 -48 -20 -55 -20 -8
0 -11 -4 -8 -10 3 -6 -1 -7 -9 -4 -9 4 -18 -1 -22 -10 -3 -9 -11 -16 -18 -16
-6 0 -61 -24 -123 -54 -61 -30 -114 -52 -117 -48 -3 3 -6 0 -6 -6 0 -7 -6 -12
-14 -12 -7 0 -58 -22 -112 -50 -55 -27 -103 -50 -107 -50 -15 0 -195 -89 -202
-100 -4 -6 18 -10 62 -11 187 -1 252 -5 267 -18 14 -12 16 -45 16 -255 0 -262
-7 -312 -57 -415 -14 -29 -39 -69 -55 -87 -37 -42 -136 -98 -201 -115 -26 -6
-50 -15 -53 -20 -3 -5 19 -31 48 -59 40 -38 46 -48 26 -39 -15 7 -25 15 -23
20 3 4 -8 13 -24 20 -16 7 -27 17 -25 21 3 5 -10 15 -28 22 -24 11 -85 15
-223 16 -352 2 -418 10 -518 63 -109 58 -186 177 -206 318 -4 32 -11 62 -14
65 -9 10 -121 -28 -221 -76 -48 -22 -89 -40 -93 -40 -4 0 -39 -15 -77 -33 -39
-18 -100 -46 -136 -62 -36 -16 -72 -35 -80 -41 -8 -7 -28 -16 -45 -20 -16 -4
-36 -11 -42 -17 -18 -14 -133 -67 -145 -67 -6 0 -16 -7 -22 -16 -8 -10 -29
-17 -58 -17 -25 -1 -44 -5 -41 -9 7 -13 -21 -35 -39 -30 -10 2 -20 -2 -24 -11
-3 -9 -12 -13 -21 -10 -11 4 -14 2 -9 -6 5 -7 2 -10 -6 -9 -11 3 -13 -341 -16
-1985 l-2 -1987 5149 0 c4102 0 5150 3 5154 13 4 9 6 9 6 0 1 -10 213 -13
1026 -13 l1025 0 0 425 0 425 -41 6 c-22 4 -46 12 -52 18 -12 11 -16 12 -60
20 -12 3 -22 5 -22 6 0 1 -11 3 -25 6 -14 2 -32 7 -40 11 -8 3 -22 7 -30 8 -8
2 -25 6 -37 9 -22 6 -52 13 -83 21 -8 2 -15 4 -15 5 0 1 -7 3 -15 5 -40 7
-139 61 -230 126 -104 73 -140 82 -205 47 -45 -25 -165 -145 -165 -166 0 -5
-12 -20 -27 -34 -16 -14 -50 -53 -78 -88 -131 -165 -367 -403 -569 -575 -33
-27 -64 -55 -70 -60 -27 -25 -185 -143 -218 -164 -56 -34 -45 -13 23 44 33 28
124 112 202 188 78 75 145 137 148 137 4 0 19 20 34 45 15 27 31 43 37 39 6
-4 8 -3 5 2 -3 6 13 30 35 54 22 25 47 55 55 67 8 13 20 20 26 16 5 -3 7 -2 4
4 -4 6 5 21 20 34 14 13 49 60 78 104 29 44 71 100 93 124 23 24 44 56 47 72
4 16 11 29 16 29 5 0 9 5 9 12 0 6 11 26 26 45 14 18 23 33 20 33 -2 0 9 28
26 63 17 34 32 73 34 86 3 27 -44 97 -153 228 -151 181 -148 177 -79 148 20
-8 36 -20 36 -27 0 -6 3 -9 6 -5 3 3 22 -9 41 -26 19 -18 51 -43 71 -57 20
-14 62 -44 92 -67 106 -80 193 -108 257 -81 15 6 31 11 36 10 4 -1 7 3 7 8 0
6 7 10 15 10 24 0 66 31 58 43 -3 5 -2 7 4 4 10 -6 57 38 86 83 10 13 17 21
17 17 0 -10 47 44 174 198 59 72 128 155 153 185 25 30 64 81 86 112 44 62 51
67 61 42 3 -8 2 -13 -3 -10 -4 3 -18 -15 -30 -40 -13 -25 -29 -48 -37 -51 -8
-3 -14 -11 -14 -18 0 -7 -9 -24 -20 -37 -10 -14 -16 -29 -12 -34 4 -5 3 -6 -2
-2 -5 4 -22 -14 -39 -40 -16 -26 -33 -49 -38 -50 -5 -2 -7 -8 -3 -13 3 -5 1
-9 -4 -9 -13 0 -53 -76 -44 -84 4 -4 0 -6 -8 -4 -8 2 -14 -2 -15 -7 0 -6 -16
-35 -36 -65 -67 -103 -139 -255 -139 -295 0 -25 31 -71 92 -136 22 -24 136
-90 153 -89 3 0 19 -7 35 -15 17 -9 30 -13 30 -10 0 8 84 -28 92 -39 4 -6 8
-7 8 -3 0 4 10 2 22 -4 12 -6 37 -14 55 -16 l33 -5 0 2851 c0 2991 2 2855 -36
2850 -4 0 -11 5 -15 13 -7 11 -9 10 -9 -1 0 -9 -7 -6 -20 9 -19 21 -19 25 -5
47 15 23 15 23 -4 12 -13 -9 -18 -20 -14 -38 2 -14 2 -23 -2 -20 -11 11 -14
49 -4 54 15 10 0 25 -18 18 -11 -4 -14 -3 -9 6 4 6 4 11 -1 10 -12 -3 -52 15
-53 23 -1 15 -97 98 -104 91 -4 -4 -4 1 0 10 3 10 3 17 -2 15 -10 -3 -51 22
-106 65 -21 16 -38 26 -38 23 0 -3 -33 19 -72 49 -40 30 -100 69 -133 87 -59
31 -159 101 -190 131 -8 9 -24 19 -35 22 -11 3 -20 11 -20 16 0 6 -5 7 -12 3
-7 -4 -8 -3 -4 4 8 13 45 7 86 -13 48 -24 145 -64 175 -71 17 -4 36 -11 43
-17 6 -5 12 -6 12 -1 0 5 10 -2 21 -16 11 -14 18 -20 15 -14 -3 6 1 11 8 11 8
0 12 -10 10 -24 -2 -21 6 -28 29 -24 5 1 5 -3 2 -9 -6 -10 22 -41 137 -147 25
-23 71 -57 102 -76 31 -19 53 -38 48 -43 -4 -5 -3 -6 2 -2 5 4 21 1 35 -6 14
-7 44 -23 66 -34 22 -11 57 -23 78 -27 l37 -7 0 2761 0 2761 -6180 0 -6180 0
0 -1614z m6877 -643 c0 -9 -4 -10 -12 -3 -7 5 -14 7 -17 4 -3 -3 -8 -1 -11 3
-3 5 5 9 17 9 12 0 23 -6 23 -13z m41 9 c12 10 14 10 8 0 -5 -8 -1 -11 16 -8
13 2 29 -1 36 -6 6 -6 12 -7 12 -4 0 4 10 1 23 -6 12 -7 25 -12 30 -13 14 0 7
-19 -8 -21 -8 -1 -13 2 -9 7 3 5 -3 10 -13 11 -37 3 -48 5 -63 11 -8 3 -24 7
-34 9 -11 2 -21 9 -22 16 -1 7 0 8 3 2 3 -7 10 -7 21 2z m-1323 -472 c132 -20
260 -102 310 -200 52 -102 57 -140 62 -403 5 -217 3 -250 -11 -272 l-16 -25
-195 0 c-163 0 -196 3 -209 16 -13 13 -16 45 -16 191 l0 175 -39 39 -39 39
-128 0 c-142 0 -188 -13 -211 -60 -16 -31 -19 -1633 -3 -1674 19 -52 51 -61
207 -61 l143 0 32 33 33 32 3 165 3 165 -68 0 c-108 0 -105 -8 -106 224 -2
196 -2 198 22 217 22 18 42 19 292 19 256 0 270 -1 289 -20 19 -19 20 -33 20
-422 0 -222 -5 -435 -10 -475 -25 -189 -123 -312 -295 -366 -66 -21 -88 -22
-370 -22 -263 0 -307 2 -360 18 -171 53 -263 154 -299 330 -13 63 -16 159 -16
569 0 271 -3 503 -6 516 -6 22 -11 23 -83 22 -42 -1 -80 -1 -86 0 -5 1 -13 2
-16 2 -9 -1 -7 32 2 44 5 6 21 10 36 9 16 -1 33 2 40 7 7 5 14 5 18 -2 4 -6
13 -7 23 -2 9 5 24 8 32 7 39 -3 40 5 40 386 0 392 6 458 51 554 54 114 181
204 315 224 84 12 525 13 609 1z m1841 -28 c137 -54 227 -166 254 -314 13 -66
8 -1997 -4 -2041 l-8 -28 46 4 c49 5 67 -8 61 -46 -2 -9 1 -15 6 -11 5 3 7 9
4 14 -3 5 -1 11 4 15 6 3 8 -3 6 -14 -2 -11 9 -31 30 -51 19 -18 32 -37 29
-42 -3 -5 -1 -7 5 -6 5 2 17 -6 26 -17 9 -11 14 -13 10 -5 -6 13 -5 13 7 0 7
-8 20 -16 28 -18 8 -2 20 -10 27 -18 6 -9 15 -16 20 -16 4 -1 24 -11 43 -23
19 -12 53 -28 75 -36 22 -7 45 -17 51 -21 33 -24 274 -28 311 -5 8 5 11 1 10
-13 -1 -13 -15 -25 -42 -36 -22 -9 -48 -24 -57 -34 -19 -21 -24 -35 -9 -25 5
3 12 1 15 -4 13 -21 -14 -20 -28 0 -15 22 -15 22 -13 1 0 -11 6 -20 12 -19 5
1 9 -4 7 -11 -1 -8 7 -16 18 -19 11 -3 18 -8 16 -12 -4 -7 55 -65 68 -67 17
-2 76 -55 76 -69 0 -8 20 -28 44 -44 25 -17 51 -38 60 -46 8 -8 43 -35 78 -58
35 -24 85 -59 111 -78 27 -18 64 -43 83 -55 19 -11 32 -24 29 -27 -3 -4 1 -2
8 3 8 8 13 59 15 170 3 150 5 161 25 175 17 12 57 15 203 15 160 0 183 -2 196
-17 13 -15 16 -70 20 -361 3 -242 8 -346 16 -354 9 -9 9 -15 -1 -26 -9 -12
-12 -193 -14 -780 -2 -752 -2 -766 -24 -836 -11 -39 -32 -90 -46 -113 -58
-100 -182 -171 -318 -182 -101 -9 -613 -6 -642 4 -17 6 -15 -1 15 -36 21 -24
58 -65 84 -91 27 -26 45 -48 40 -48 -4 0 4 -6 18 -13 14 -8 24 -20 22 -28 -2
-8 0 -11 3 -7 11 10 47 -11 40 -23 -4 -5 -1 -8 5 -7 6 2 19 -8 28 -22 16 -25
16 -25 -4 -7 -11 9 -23 15 -26 12 -2 -3 -22 12 -44 32 -21 20 -41 37 -44 38
-3 0 -16 8 -30 18 -162 115 -269 176 -332 191 -82 18 -136 3 -263 -73 -60 -37
-136 -77 -167 -90 -32 -13 -58 -28 -58 -33 0 -5 -4 -6 -10 -3 -5 3 -10 1 -10
-4 0 -6 -5 -11 -11 -11 -7 0 -19 -8 -28 -18 -25 -28 -90 -64 -105 -59 -8 3
-16 -3 -19 -15 -4 -15 -11 -19 -26 -15 -11 3 -20 2 -19 -2 0 -3 0 -13 -1 -21
-1 -13 -2 -13 -11 0 -9 13 -10 13 -11 0 -1 -8 -1 -18 0 -22 0 -4 -8 -5 -18 -3
-11 2 -22 -3 -25 -11 -3 -8 -12 -14 -21 -14 -8 0 -14 -6 -12 -13 1 -6 -5 -11
-14 -9 -9 1 -19 -4 -23 -13 -3 -8 -12 -15 -20 -15 -8 0 -20 -8 -25 -17 -6 -10
-11 -13 -11 -6 0 7 21 27 46 45 25 18 70 52 101 76 30 24 61 41 69 38 7 -3 13
0 11 6 -3 16 105 89 123 83 8 -4 11 -3 7 1 -9 10 40 54 60 54 9 0 13 3 10 6
-6 6 15 24 115 99 23 17 41 35 41 40 1 6 12 20 24 33 13 13 20 28 17 34 -5 7
-1 9 9 5 12 -4 14 -2 10 10 -5 12 -3 14 8 8 11 -7 11 -5 -1 10 -14 17 -13 18
4 12 16 -6 17 -5 6 8 -14 17 0 21 16 5 7 -7 11 -6 11 4 0 8 -4 13 -7 11 -4 -3
-8 6 -7 19 0 29 -47 97 -107 155 -25 24 -43 48 -40 53 9 13 -3 9 -20 -8 -13
-13 -16 -44 -16 -179 l0 -163 -35 -12 c-52 -17 -391 -8 -411 11 -12 12 -14 98
-15 557 l0 542 -187 0 c-103 0 -197 -3 -209 -6 l-22 -6 -1 -524 c0 -289 -4
-534 -9 -547 -12 -32 -22 -33 -238 -32 -150 0 -186 3 -198 16 -14 13 -15 165
-15 1323 -1 972 2 1312 11 1322 9 11 54 14 215 14 198 0 203 0 218 -22 14 -20
16 -90 16 -560 l0 -538 210 0 210 0 0 544 c0 482 2 546 16 560 13 14 47 16
218 16 144 0 205 -3 214 -12 9 -9 12 -268 12 -1102 0 -746 4 -1103 11 -1130 7
-24 18 -40 30 -43 10 -3 19 -9 19 -14 0 -5 5 -9 11 -9 10 0 78 -47 89 -61 9
-12 135 -78 178 -93 50 -18 51 -15 20 69 l-23 60 -3 1145 -3 1146 21 22 c18
19 31 22 115 23 109 2 111 2 120 11 7 6 -77 68 -93 68 -5 0 -21 9 -36 21 -14
11 -26 17 -26 14 0 -4 -21 9 -47 28 -54 39 -227 128 -288 147 -22 7 -44 15
-50 19 -5 3 -19 7 -29 8 -11 2 -45 10 -76 18 -109 28 -122 28 -192 -4 -92 -43
-141 -52 -338 -61 -173 -8 -176 -9 -310 -55 -74 -26 -146 -49 -159 -52 -13 -2
-32 -8 -43 -14 -10 -5 -18 -7 -18 -4 0 3 -11 -2 -25 -11 -13 -8 -29 -13 -34
-10 -5 4 -12 2 -16 -4 -4 -6 -11 -8 -16 -5 -5 4 -9 1 -9 -5 0 -6 -4 -8 -10 -5
-5 3 -10 2 -10 -4 0 -10 -56 -26 -79 -22 -7 1 -10 -2 -7 -8 6 -9 -30 -27 -46
-23 -5 1 -8 -2 -8 -7 0 -6 -9 -8 -19 -6 -11 2 -25 -3 -31 -11 -7 -7 -16 -12
-20 -9 -5 3 -11 1 -15 -5 -3 -5 -13 -10 -22 -10 -9 0 -36 -9 -60 -21 -24 -11
-49 -22 -55 -23 -7 -1 -24 -8 -38 -16 -28 -16 -47 -21 -71 -21 -8 0 -28 -11
-44 -23 l-29 -23 23 -31 c34 -48 59 -112 76 -191 12 -59 15 -160 15 -541 0
-509 -5 -571 -57 -674 -27 -53 -107 -137 -154 -161 -16 -9 -29 -19 -29 -23 0
-12 50 -205 140 -542 84 -315 91 -353 75 -369 -12 -13 -46 -16 -198 -16 -211
-1 -224 1 -238 28 -12 22 -58 187 -139 502 -59 231 -91 349 -96 356 -3 5 -54
9 -115 9 l-109 0 0 -428 c0 -350 -3 -432 -14 -447 -13 -18 -29 -19 -214 -20
-153 0 -203 3 -215 14 -15 12 -17 106 -19 1027 -3 1045 -4 1057 -41 1026 -11
-9 -14 -8 -14 3 0 8 2 13 5 10 3 -2 14 8 26 23 20 25 21 38 23 291 1 206 4
266 15 272 7 5 234 9 504 9 464 0 496 -1 557 -20 35 -11 84 -31 108 -44 43
-24 104 -32 115 -14 3 4 9 6 14 3 4 -3 11 2 14 11 3 8 10 13 15 9 5 -3 12 -1
16 5 4 6 11 7 17 4 6 -4 14 0 19 7 6 10 9 11 9 2 0 -7 5 -13 11 -13 5 0 7 5 3
12 -4 7 -3 8 4 4 7 -4 12 -1 12 8 0 9 3 15 8 14 14 -3 91 22 97 32 4 6 11 8
16 5 5 -4 9 -2 9 3 0 5 11 10 25 10 14 0 34 7 43 16 10 9 34 19 53 22 19 4 41
13 49 20 9 7 35 16 58 20 23 4 42 9 42 13 0 7 58 35 75 36 6 1 15 -3 22 -7 7
-6 14 -4 19 3 4 8 3 9 -4 5 -7 -4 -12 -4 -12 1 0 4 32 22 70 38 38 17 70 34
70 38 0 5 5 5 10 2 6 -3 10 -1 10 5 0 6 4 9 9 5 5 -3 12 -1 16 4 3 5 -16 13
-42 16 -159 22 -262 81 -331 189 -42 65 -58 121 -72 248 -9 79 -17 108 -33
125 -11 12 -24 20 -28 17 -5 -3 -6 2 -3 10 5 12 10 13 24 3 11 -6 23 -8 27 -3
4 4 9 391 10 859 2 818 3 854 23 931 35 137 112 226 240 277 85 33 143 38 450
35 l285 -2 81 -32z m-5096 -74 c0 -4 5 -8 11 -8 5 0 7 6 3 13 -6 9 -4 9 7 1 8
-6 22 -10 32 -9 22 4 22 2 -5 -21 -12 -10 -18 -14 -15 -7 4 6 3 14 -3 18 -5 3
-11 1 -11 -4 -3 -26 -4 -30 -11 -37 -4 -3 -6 2 -4 13 3 12 -1 20 -9 20 -8 0
-12 -8 -10 -20 3 -14 1 -16 -9 -8 -7 6 -16 8 -20 4 -4 -4 -49 -9 -99 -10 -51
-1 -136 -3 -190 -5 -54 -2 -101 0 -103 4 -3 4 4 5 16 3 11 -2 22 0 25 5 3 5
14 7 25 5 11 -2 20 0 20 4 0 5 14 7 30 6 17 -1 33 1 35 6 3 4 14 6 25 4 11 -2
22 1 25 6 9 14 27 0 18 -14 -3 -7 4 -3 16 7 25 23 51 29 51 13 0 -8 4 -7 12 1
9 9 15 9 27 -1 10 -8 13 -8 8 0 -4 6 -2 13 4 15 20 7 99 4 99 -4z m-2016 -295
c4 -10 4 -14 0 -10 -4 4 -13 2 -20 -4 -8 -7 -14 -6 -20 2 -4 8 -3 9 5 5 6 -4
14 0 17 8 8 20 10 20 18 -1z m355 -163 c0 -10 -3 -8 -9 5 -12 27 -12 43 0 25
5 -8 9 -22 9 -30z m2011 -1125 c-12 -15 0 -22 14 -8 14 15 35 11 28 -5 -5 -15
-3 -15 10 -4 13 10 18 10 24 1 4 -8 3 -9 -5 -5 -8 5 -10 0 -7 -17 4 -25 -13
-32 -31 -12 -4 4 -3 5 4 1 6 -3 14 -2 17 3 3 5 -3 11 -14 14 -11 3 -20 2 -20
-3 0 -12 -39 -19 -46 -9 -3 5 -9 7 -14 4 -4 -3 -13 1 -19 9 -9 11 -7 13 11 12
14 -1 22 4 20 12 -1 8 2 11 7 8 5 -4 12 -2 16 4 3 5 9 10 12 10 3 0 0 -7 -7
-15z m3583 -378 c7 3 8 2 4 -2 -14 -16 -36 -14 -29 3 4 10 7 12 10 4 2 -7 9
-9 15 -5z m4831 2 c-2 -4 0 -10 6 -14 5 -3 10 -2 10 3 0 5 15 2 34 -7 18 -9
32 -19 29 -23 -2 -4 3 -5 12 -2 9 4 25 -2 35 -11 11 -10 20 -15 20 -11 0 4 10
-2 22 -14 21 -19 31 -23 44 -17 3 1 10 -6 15 -16 6 -9 14 -15 19 -12 4 3 10
-2 14 -10 3 -8 26 -24 51 -36 34 -16 43 -25 35 -33 -8 -8 -13 -7 -19 3 -5 8
-16 11 -26 8 -9 -4 -14 -3 -10 3 3 6 1 11 -4 11 -16 2 -23 4 -64 23 -21 9 -63
28 -93 41 -31 14 -61 22 -67 18 -6 -4 -7 -1 -2 7 6 10 4 12 -10 6 -15 -5 -16
-4 -6 8 10 12 9 14 -6 11 -22 -3 -45 14 -37 27 3 5 -1 17 -10 27 -14 15 -14
18 -1 18 8 0 12 -4 9 -8z m-1254 -271 c0 15 24 11 83 -15 46 -21 62 -43 32
-43 -8 0 -15 3 -15 8 0 4 -18 7 -40 6 -27 0 -45 5 -56 17 -9 10 -20 16 -25 14
-4 -3 -11 0 -15 6 -5 8 -3 9 6 4 10 -6 12 -3 7 11 -7 18 -7 18 8 0 8 -11 15
-14 15 -8z m-1285 -368 c-2 -4 -21 -7 -42 -8 -29 0 -33 2 -18 8 23 9 66 9 60
0z m-4746 -274 c13 -16 30 -84 86 -346 63 -297 107 -485 115 -490 4 -3 7 -21
6 -40 0 -19 7 -69 17 -110 22 -102 65 -300 83 -385 8 -38 23 -110 34 -160 11
-49 27 -121 35 -160 8 -38 33 -153 55 -255 22 -102 47 -216 55 -255 8 -38 30
-144 50 -234 41 -191 42 -209 15 -219 -11 -4 -108 -7 -216 -7 -227 1 -215 -4
-234 103 -28 161 -80 416 -86 421 -3 3 -136 6 -295 6 l-289 0 -15 -70 c-8 -38
-24 -124 -35 -190 -33 -191 -50 -256 -71 -263 -15 -6 -344 -8 -410 -3 -27 2
-28 21 -3 136 90 415 155 719 208 965 19 91 38 174 42 183 3 10 1 24 -6 32
-10 12 -9 20 4 40 17 25 54 163 80 295 17 83 41 195 80 375 32 145 60 278 87
405 35 166 51 220 68 230 9 5 128 10 272 10 210 0 259 -3 268 -14z m6956 -1
c169 -44 272 -163 304 -350 15 -83 16 -743 2 -792 -24 -84 -92 -156 -160 -169
-37 -8 -32 -20 10 -29 17 -4 54 -30 83 -59 77 -75 79 -87 74 -539 -5 -395 -5
-399 -58 -509 -12 -26 -39 -66 -61 -88 -45 -46 -155 -104 -219 -115 -60 -11
-927 -13 -964 -3 -16 4 -33 13 -38 20 -4 7 -8 248 -8 534 0 505 -3 589 -21
579 -4 -3 -2 6 6 21 11 23 14 151 14 752 1 661 2 727 18 744 15 17 43 18 487
18 392 0 482 -3 531 -15z m635 -497 c0 -9 4 -8 10 2 9 13 10 13 10 0 0 -11 2
-12 8 -3 6 9 11 6 21 -8 10 -17 10 -20 -1 -13 -18 12 -31 12 -47 0 -11 -8 -13
-8 -7 2 4 7 1 12 -9 12 -9 0 -14 -4 -11 -8 3 -5 -5 -8 -17 -6 -12 1 -33 -5
-45 -13 -13 -8 -26 -12 -29 -9 -4 3 -13 0 -21 -7 -13 -10 -14 -9 -8 1 10 17
62 43 70 35 3 -4 6 0 6 8 0 11 2 11 10 -1 8 -13 10 -12 10 3 0 20 50 25 50 5z
m85 0 c5 4 5 1 1 -6 -6 -10 -11 -10 -22 -1 -8 6 -14 14 -14 16 0 3 6 0 13 -6
8 -6 18 -7 22 -3z m-7012 -152 c4 -11 1 -13 -10 -9 -12 5 -14 3 -8 -8 8 -12 6
-12 -8 0 -18 14 -23 26 -8 16 5 -3 12 -1 16 5 8 13 12 13 18 -4z m-43 -22 c0
-8 -19 -13 -24 -6 -3 5 1 9 9 9 8 0 15 -2 15 -3z m-38 -15 c2 -2 2 -3 0 -2 -2
0 -18 -3 -35 -8 -28 -7 -30 -7 -14 5 17 13 43 16 49 5z m-159 -64 c-3 -9 -8
-14 -10 -11 -3 3 -2 9 2 15 9 16 15 13 8 -4z m-31 -27 c-8 -8 -9 -4 -5 13 4
13 8 18 11 10 2 -7 -1 -18 -6 -23z m-22 2 c-6 -11 -13 -20 -16 -20 -2 0 0 9 6
20 6 11 13 20 16 20 2 0 0 -9 -6 -20z m-35 -30 c-5 -8 -11 -8 -17 -2 -6 6 -7
16 -3 22 5 8 11 8 17 2 6 -6 7 -16 3 -22z m-31 -5 c2 -7 -5 -11 -17 -10 -12 1
-27 -2 -33 -6 -7 -5 -11 -3 -11 6 0 8 4 12 8 9 4 -2 10 -1 13 4 8 13 34 11 40
-3z m5591 -133 c-3 -3 -11 0 -18 7 -9 10 -8 11 6 5 10 -3 15 -9 12 -12z m-15
-596 c0 -2 -9 -6 -20 -9 -11 -3 -18 -1 -14 4 5 9 34 13 34 5z m-8980 -132 c0
-8 -19 -13 -24 -6 -3 5 1 9 9 9 8 0 15 -2 15 -3z m13 -19 c-3 -9 -8 -14 -10
-11 -3 3 -2 9 2 15 9 16 15 13 8 -4z m1452 -1095 c3 -5 1 -10 -4 -10 -6 0 -11
5 -11 10 0 6 2 10 4 10 3 0 8 -4 11 -10z m110 -100 c3 -5 2 -10 -4 -10 -5 0
-13 5 -16 10 -3 6 -2 10 4 10 5 0 13 -4 16 -10z m56 -42 c6 1 7 -3 3 -9 -5 -9
-12 -6 -24 9 -10 12 -21 18 -25 14 -5 -4 -5 -1 0 7 7 11 11 11 22 -5 8 -10 19
-18 24 -16z m9956 -30 c-3 -8 -6 -5 -6 6 -1 11 2 17 5 13 3 -3 4 -12 1 -19z
m-9744 -108 c18 0 28 -11 46 -52 13 -29 27 -79 32 -111 5 -33 15 -73 22 -90
l13 -31 22 51 c12 28 27 53 35 56 7 2 40 43 72 91 59 85 60 86 103 86 23 0 42
-4 42 -8 0 -5 -32 -51 -71 -103 -39 -52 -77 -109 -86 -126 -8 -18 -19 -33 -23
-33 -5 0 -24 -21 -43 -48 -27 -36 -39 -67 -51 -127 -32 -160 -27 -150 -70
-153 l-38 -3 7 53 c4 29 14 77 21 106 20 77 18 94 -30 237 -50 149 -77 215
-88 215 -5 0 -8 4 -8 9 0 6 16 3 35 -5 19 -7 45 -14 58 -14z m2117 -21 c39
-22 41 -25 35 -59 -9 -51 -19 -55 -57 -28 -78 58 -154 62 -235 12 -118 -73
-178 -267 -120 -381 37 -71 148 -81 254 -24 31 17 61 31 65 31 5 0 8 -17 6
-37 -3 -36 -7 -40 -71 -72 -59 -30 -78 -34 -140 -34 -87 0 -135 20 -177 73
-61 77 -62 221 -3 345 31 66 112 153 167 179 82 39 202 37 276 -5z m1340 -3
c92 -48 123 -107 118 -220 -4 -105 -45 -193 -119 -260 -76 -69 -140 -89 -286
-94 l-123 -4 0 24 c0 13 14 86 30 163 17 77 37 174 45 215 9 41 20 91 24 110
5 19 12 48 15 64 l7 28 127 -4 c97 -3 135 -8 162 -22z m1384 8 c30 -29 13 -75
-31 -89 -26 -7 -68 28 -59 52 3 8 6 21 6 28 0 25 62 32 84 9z m1365 2 c19 -23
9 -69 -18 -82 -34 -17 -65 -3 -69 30 -6 51 57 88 87 52z m-1635 -62 c7 -25 8
-26 26 -9 11 10 20 14 20 10 0 -4 10 0 23 11 l22 19 -19 -22 c-11 -13 -25 -23
-33 -23 -8 0 -12 -4 -8 -9 3 -6 -3 -8 -14 -6 -13 2 -22 -3 -26 -16 -3 -10 -8
-28 -11 -39 -5 -18 -1 -20 45 -20 47 0 51 -2 51 -23 0 -35 -19 -47 -71 -47
l-47 0 -16 -68 c-9 -38 -21 -101 -28 -141 -14 -83 -8 -93 49 -84 32 5 33 4 33
-26 0 -38 -24 -51 -85 -45 -46 4 -85 41 -85 80 0 14 11 80 25 146 14 66 25
125 25 130 0 6 -18 8 -40 5 l-39 -4 14 35 c8 19 15 36 15 38 0 1 14 4 32 6 27
3 33 9 46 46 9 29 25 50 46 63 40 24 43 24 50 -7z m1352 -16 c-3 -24 -9 -53
-12 -65 -6 -22 -3 -23 45 -23 50 0 51 -1 51 -29 0 -33 -14 -41 -70 -41 -21 0
-41 -4 -44 -9 -5 -8 -38 -155 -53 -240 -7 -41 8 -53 60 -44 34 5 37 4 37 -19
0 -36 -26 -53 -82 -53 -91 0 -106 51 -67 233 11 53 23 105 25 115 4 13 -1 17
-25 17 -24 0 -31 4 -31 19 0 38 11 51 45 51 31 0 33 2 39 43 6 37 13 47 44 65
20 12 39 22 41 22 2 0 1 -19 -3 -42z m572 -78 c28 0 74 -28 99 -60 7 -8 19
-35 27 -60 14 -43 14 -49 -12 -125 -46 -138 -152 -219 -260 -199 -47 9 -88 37
-107 74 -32 61 -12 193 40 272 34 51 141 121 166 107 10 -5 31 -9 47 -9z
m-5911 -20 c45 -27 63 -60 70 -122 7 -67 -15 -149 -58 -216 -24 -39 -39 -51
-87 -69 -99 -37 -173 -21 -226 51 -18 23 -20 39 -18 109 6 138 7 145 14 141 4
-2 25 16 49 40 23 25 60 54 83 66 53 26 130 27 173 0z m853 0 c0 -33 -22 -70
-42 -70 -10 0 -31 -6 -46 -14 -56 -29 -70 -56 -99 -191 l-28 -130 -38 -3 c-35
-3 -37 -2 -32 20 3 13 21 100 40 193 46 219 41 207 73 203 23 -3 27 -7 26 -36
l-2 -32 37 28 c71 56 111 68 111 32z m1058 10 c52 0 51 7 12 -175 -30 -135
-50 -234 -50 -241 0 -9 -57 -3 -66 6 -7 7 -23 3 -49 -10 -143 -74 -232 110
-140 289 49 96 120 145 200 136 28 -3 69 -5 93 -5z m373 -20 c-5 -40 -20 -60
-45 -60 -13 0 -41 -13 -64 -30 -45 -32 -47 -38 -82 -205 l-23 -105 -32 0 c-17
0 -34 3 -37 6 -3 3 0 29 7 57 7 29 25 111 40 182 34 164 38 175 70 175 22 0
25 -4 25 -37 l0 -37 28 26 c34 33 82 59 102 55 10 -2 14 -11 11 -27z m1052 11
c15 -10 35 -27 42 -38 20 -28 29 -122 16 -155 l-11 -28 -135 0 -135 0 0 -41
c0 -52 12 -73 49 -89 36 -15 82 -8 134 20 20 11 37 19 38 18 16 -54 5 -84 -36
-98 -19 -6 -35 -15 -35 -19 0 -13 -139 6 -164 23 -48 31 -61 63 -61 151 0 69
4 89 30 139 46 90 110 135 195 136 27 0 56 -7 73 -19z m377 3 c38 -15 40 -19
35 -48 -3 -17 -7 -41 -8 -54 -1 -21 -2 -21 -24 7 -46 59 -135 62 -149 5 -6
-22 -2 -32 20 -51 31 -27 49 -29 66 -8 14 17 30 20 30 5 0 -5 -6 -10 -14 -10
-24 0 -27 -15 -8 -36 69 -74 69 -126 4 -197 -48 -51 -142 -58 -210 -17 -27 17
-30 23 -23 43 6 16 6 28 -2 36 -6 6 -9 11 -6 12 2 0 12 2 22 4 9 2 17 -1 17
-6 0 -17 64 -49 98 -49 38 0 72 30 72 63 0 32 -11 44 -51 61 -44 18 -88 75
-96 121 -4 27 0 43 18 69 43 63 126 83 209 50z m924 -15 c33 -39 33 -60 -7
-244 l-33 -150 -38 -3 -38 -3 7 33 c3 18 18 84 31 147 14 62 24 125 22 139
-11 89 -175 18 -192 -83 -3 -22 -16 -84 -28 -137 l-21 -98 -34 0 c-37 0 -40
10 -24 85 74 351 70 338 109 333 22 -2 26 -7 24 -25 -4 -29 -2 -29 55 7 67 43
131 42 167 -1z m425 22 l44 0 -7 -38 c-4 -21 -23 -114 -44 -208 l-37 -170 -29
-3 c-16 -2 -32 2 -37 9 -5 9 -11 10 -21 2 -7 -6 -31 -16 -53 -23 -34 -10 -47
-9 -77 3 -123 52 -87 308 57 405 46 31 54 33 105 28 30 -3 75 -6 99 -5z m1385
-17 c20 -20 26 -37 26 -68 0 -56 -59 -329 -73 -338 -31 -20 -87 3 -67 26 4 6
22 75 38 153 26 126 28 144 15 163 -21 29 -63 25 -119 -12 -47 -32 -49 -35
-61 -103 -7 -38 -18 -88 -24 -110 -5 -22 -13 -56 -17 -75 -7 -32 -11 -35 -45
-38 -41 -4 -45 5 -27 68 5 19 14 64 20 100 5 36 20 106 33 155 23 87 25 90 53
90 25 0 29 -3 27 -28 l-2 -27 32 24 c71 54 148 62 191 20z m-6174 -5 c0 -12
-11 -72 -24 -133 -37 -170 -39 -182 -22 -199 11 -11 25 -13 48 -8 102 23 124
65 165 301 3 19 10 41 16 48 11 14 53 16 61 3 6 -8 -7 -77 -44 -251 -12 -52
-23 -110 -27 -127 -5 -30 -9 -33 -40 -33 -32 0 -35 2 -29 25 8 31 1 31 -38 2
-97 -74 -196 -47 -196 52 0 25 7 78 15 116 9 39 20 95 26 125 15 85 24 100 59
100 24 0 30 -4 30 -21z m3954 1 c-1 -8 -14 -73 -29 -145 -15 -71 -33 -157 -39
-190 l-11 -60 -39 -3 -39 -3 7 33 c40 207 75 368 82 379 10 16 69 6 68 -11z
m1358 15 c5 -5 -4 -56 -50 -275 l-28 -135 -37 -3 c-41 -4 -41 -2 -28 63 5 22
16 76 25 120 20 92 45 204 51 223 4 12 56 17 67 7z m-5922 -85 c6 -11 8 -20 6
-20 -3 0 -10 9 -16 20 -6 11 -8 20 -6 20 3 0 10 -9 16 -20z m350 -312 c0 -18
-2 -20 -9 -8 -6 8 -7 18 -5 22 9 14 14 9 14 -14z m75 -58 c3 -5 1 -12 -5 -15
-6 -4 -9 -1 -8 6 2 7 -3 13 -11 14 -7 0 -21 11 -30 25 l-16 25 32 -23 c18 -13
35 -27 38 -32z m160 -139 c-3 -2 10 -13 28 -25 29 -20 47 -66 26 -66 -5 0 -9
5 -9 11 0 6 -27 37 -60 69 -69 66 -77 84 -21 43 22 -15 38 -30 36 -32z m89
-77 c9 -3 16 -13 16 -20 0 -8 11 -19 25 -26 13 -6 22 -15 19 -19 -3 -5 1 -9 8
-9 13 0 44 -39 41 -51 -1 -4 5 -6 15 -5 9 0 16 -5 15 -11 -2 -7 3 -13 10 -13
13 0 94 -66 147 -121 14 -14 48 -43 75 -65 50 -39 274 -225 306 -254 78 -70
276 -211 298 -213 12 -1 21 -5 21 -10 0 -5 7 -7 15 -4 8 4 17 1 21 -4 3 -6 15
-9 25 -6 10 3 21 2 23 -2 6 -9 119 -13 167 -5 20 3 46 14 57 24 11 10 23 16
26 13 3 -4 6 -1 6 5 0 7 7 12 15 12 8 0 15 5 15 10 0 6 9 10 20 10 11 0 20 5
20 11 0 5 5 7 10 4 6 -3 10 -1 10 5 0 6 5 8 10 5 6 -3 10 -1 10 5 0 6 4 9 8 6
5 -3 19 4 30 15 12 11 22 17 22 14 0 -4 24 7 53 24 30 17 57 29 60 26 4 -3 5
-2 2 2 -3 3 32 29 78 57 45 28 114 74 152 102 39 28 81 57 95 64 14 7 27 16
30 19 8 10 64 35 73 32 5 -1 5 3 2 9 -4 7 2 14 14 17 12 3 21 9 21 13 0 5 14
13 30 19 17 5 30 6 30 2 0 -14 -28 -33 -39 -27 -5 3 -12 -1 -15 -10 -3 -8 -11
-12 -16 -9 -6 4 -9 3 -8 -2 5 -13 -110 -113 -130 -113 -5 0 -17 -10 -28 -21
-10 -12 -37 -33 -59 -47 -22 -14 -51 -36 -65 -50 -14 -13 -51 -42 -83 -64 -34
-23 -55 -44 -51 -50 4 -6 3 -8 -3 -5 -6 4 -33 -14 -59 -41 -27 -26 -44 -40
-40 -32 5 8 -1 5 -13 -8 -12 -12 -19 -27 -16 -32 4 -6 -1 -7 -11 -3 -14 5 -16
3 -11 -11 4 -10 3 -15 -3 -11 -6 3 -10 2 -10 -4 0 -6 -14 -26 -31 -45 -34 -40
-36 -75 -6 -115 21 -30 61 -113 58 -124 -1 -5 3 -6 8 -3 4 3 20 -12 34 -33 40
-60 526 -542 687 -681 35 -30 109 -98 165 -150 55 -52 108 -102 118 -110 10
-8 24 -21 32 -27 7 -7 18 -13 24 -13 5 0 16 -9 24 -20 8 -11 16 -18 19 -15 3
3 10 -7 17 -21 l12 -26 -33 25 c-18 15 -40 33 -50 41 -9 8 -20 11 -24 8 -4 -4
-4 -1 0 6 4 7 1 12 -8 12 -9 0 -16 5 -16 10 0 6 -5 10 -11 10 -10 0 -35 18
-97 70 -13 11 -30 20 -38 20 -8 0 -14 4 -14 8 0 5 -19 22 -43 39 -23 17 -61
47 -82 67 -22 19 -43 36 -47 36 -4 0 -38 26 -75 58 -38 31 -88 73 -113 92 -57
43 -160 133 -225 196 -74 71 -402 363 -460 409 -27 22 -53 43 -56 48 -3 5 -10
8 -15 8 -5 -1 -16 5 -24 12 -17 14 -13 13 -64 23 -90 16 -137 7 -221 -44 -33
-20 -63 -36 -67 -34 -5 1 -8 -2 -8 -7 0 -9 -56 -35 -64 -30 -2 2 -13 -5 -25
-15 -12 -11 -21 -16 -21 -12 0 3 -12 0 -27 -7 -16 -8 -57 -18 -93 -21 -36 -4
-78 -9 -95 -11 -70 -9 -135 -15 -210 -20 -44 -3 -102 -9 -130 -14 -27 -5 -57
-9 -65 -9 -8 0 -37 -3 -65 -6 -27 -3 -72 -8 -98 -11 -26 -2 -53 -7 -59 -11 -6
-4 -21 -8 -32 -10 -57 -7 -127 -19 -166 -29 -14 -3 -43 -8 -65 -11 -34 -4 -60
-8 -100 -17 -5 -2 -16 -7 -24 -11 -10 -7 -12 -5 -6 5 5 8 -2 5 -15 -6 -14 -12
-20 -14 -15 -5 7 12 6 13 -6 3 -9 -7 -45 -15 -80 -18 -87 -6 -103 -9 -109 -17
-10 -13 -57 -16 -57 -4 0 7 10 12 21 11 12 -1 27 2 34 8 6 5 12 6 12 2 0 -4
11 0 23 8 20 13 76 32 122 41 6 2 27 10 49 19 21 9 42 17 46 17 4 0 13 7 20
15 7 8 16 12 21 9 5 -3 9 0 9 7 0 7 3 9 7 6 3 -4 12 -2 20 4 7 6 13 8 13 5 0
-4 7 -1 15 8 9 8 23 12 32 9 11 -4 14 -3 9 5 -5 8 2 12 19 12 15 0 24 4 20 10
-3 6 1 10 9 10 9 0 16 5 16 11 0 5 4 8 9 5 5 -3 14 0 20 8 13 16 62 27 136 31
28 2 68 6 90 10 22 3 65 8 95 10 30 3 69 7 85 10 17 3 52 7 78 9 52 5 146 26
162 37 6 3 28 12 50 19 22 6 56 19 75 28 19 9 40 17 47 18 6 1 28 17 48 36 86
77 95 88 87 106 -35 76 -45 97 -58 109 -8 8 -14 21 -14 29 0 8 -5 14 -11 14
-5 0 -7 5 -4 10 3 6 2 10 -2 10 -5 0 -30 28 -55 63 -51 67 -462 487 -478 487
-6 0 -10 7 -10 15 0 9 -11 20 -25 27 -13 6 -23 14 -22 17 4 8 -52 61 -60 58
-3 -1 -7 6 -9 16 -3 19 -2 19 20 11z m2406 -128 c0 -2 -6 -9 -14 -15 -11 -9
-16 -9 -22 0 -4 7 -3 9 4 5 6 -3 13 -2 17 4 6 10 15 14 15 6z m-56 -47 c-9
-10 -20 -16 -24 -14 -4 3 -11 -2 -14 -11 -3 -8 -10 -13 -15 -10 -4 3 -16 -3
-26 -14 -21 -24 -37 -26 -29 -5 4 8 10 12 15 9 5 -3 9 -1 9 4 0 9 45 34 65 37
6 0 9 6 8 11 -1 6 5 11 13 11 12 0 11 -4 -2 -18z m6512 -394 c-4 -14 -13 -25
-21 -25 -13 0 -21 -26 -16 -53 1 -4 -8 -3 -19 3 l-20 11 21 22 c11 12 28 34
37 49 19 32 27 29 18 -7z m-1514 -323 c7 -9 26 -25 41 -35 15 -10 25 -23 21
-29 -4 -6 -3 -8 3 -5 6 4 21 -5 34 -20 l24 -26 -27 18 c-16 9 -28 14 -28 9 0
-4 -9 2 -20 14 -12 12 -25 22 -30 22 -6 0 -10 5 -10 10 0 6 -12 22 -27 35 -22
19 -24 24 -11 25 9 0 23 -8 30 -18z m198 -182 c0 -5 -5 -12 -12 -16 -7 -4 -8
-3 -4 4 4 7 1 12 -7 12 -7 0 -14 7 -14 14 0 11 5 13 19 5 10 -5 18 -14 18 -19z
m845 -299 c3 -5 2 -12 -3 -15 -5 -3 -9 1 -9 9 0 17 3 19 12 6z m-9178 -46 c0
-8 -4 -12 -9 -9 -5 3 -6 10 -3 15 9 13 12 11 12 -6z m-100 -29 c0 -8 -6 -12
-15 -9 -11 5 -11 7 0 14 7 5 13 9 14 9 0 0 1 -6 1 -14z m3713 -913 c17 -19 18
-22 4 -10 -11 9 -24 14 -29 10 -4 -5 -5 -2 -1 5 4 7 1 12 -7 12 -8 0 -17 7
-21 15 -8 22 22 4 54 -32z m85 -71 c-3 -3 -11 0 -18 7 -9 10 -8 11 6 5 10 -3
15 -9 12 -12z"/>
<path d="M4434 8439 c-3 -6 1 -18 10 -27 10 -11 16 -12 16 -4 0 7 -4 12 -10
12 -5 0 -10 5 -10 11 0 5 5 7 12 3 7 -4 8 -3 4 4 -9 15 -13 15 -22 1z"/>
<path d="M4476 8408 c3 -5 10 -6 15 -3 13 9 11 12 -6 12 -8 0 -12 -4 -9 -9z"/>
<path d="M6885 9172 c-64 -40 -60 25 -60 -883 l0 -829 32 -31 31 -32 124 -2
c149 -2 186 5 215 42 l23 28 0 825 c0 907 4 852 -60 885 -45 24 -265 21 -305
-3z"/>
<path d="M7760 7157 c0 -2 6 -10 14 -16 11 -9 16 -9 22 1 4 7 4 10 -1 6 -4 -4
-14 -3 -22 3 -7 6 -13 9 -13 6z"/>
<path d="M8541 6521 c-12 -21 -16 -1932 -5 -1988 3 -16 14 -39 24 -53 17 -22
27 -24 157 -33 116 -8 145 -7 175 6 46 19 71 57 70 105 -1 20 -1 48 0 62 5
204 8 1549 3 1587 -6 46 -10 54 -43 75 -20 12 -41 24 -46 27 -8 3 -128 90
-151 109 -5 4 -47 34 -92 65 -77 55 -82 57 -92 38z m359 -1935 c0 -2 -8 -10
-17 -17 -16 -13 -17 -12 -4 4 13 16 21 21 21 13z m-120 -73 c0 -5 -13 -17 -28
-27 l-27 -19 24 26 c26 28 31 32 31 20z"/>
<path d="M5156 6196 c-3 -12 -6 -212 -6 -444 l0 -424 188 4 c286 5 275 -12
269 397 -4 285 -6 314 -22 328 -4 4 -5 1 -1 -7 4 -8 -4 -3 -17 12 -14 15 -27
24 -30 21 -3 -2 -18 4 -34 15 -46 32 -127 77 -135 74 -5 -1 -8 3 -8 8 0 6 -3
9 -7 8 -5 -1 -26 3 -48 10 -22 6 -63 12 -92 15 -45 3 -52 1 -57 -17z"/>
<path d="M5442 6213 c-12 -5 53 -72 71 -73 5 0 5 -4 2 -10 -3 -5 -1 -10 5 -10
6 0 8 -5 5 -10 -4 -6 -3 -10 2 -9 21 4 31 -3 38 -23 4 -14 8 -18 12 -10 2 6 9
10 14 6 12 -7 12 58 -1 91 -15 40 -100 68 -148 48z"/>
<path d="M2666 7908 c3 -5 10 -6 15 -3 13 9 11 12 -6 12 -8 0 -12 -4 -9 -9z"/>
<path d="M11117 7535 c-4 -8 -2 -17 3 -20 6 -4 10 3 10 14 0 25 -6 27 -13 6z"/>
<path d="M9855 7289 c-3 -3 3 -13 13 -20 9 -7 14 -9 10 -5 -4 5 -3 14 2 21 7
8 5 12 -6 12 -8 0 -17 -4 -19 -8z"/>
<path d="M3526 5970 c-10 -52 -24 -129 -32 -170 -38 -206 -39 -244 -6 -218 10
7 3 -3 -14 -23 -20 -23 -33 -53 -38 -80 -3 -24 -20 -116 -37 -204 -16 -88 -37
-196 -45 -240 -8 -44 -17 -88 -20 -97 -5 -17 9 -18 205 -18 162 0 211 3 211
13 0 6 -16 95 -34 197 -19 102 -38 201 -41 220 -32 176 -49 247 -61 261 -10
11 -12 23 -6 39 5 14 4 47 -3 84 -7 34 -20 106 -30 161 -10 55 -21 116 -25
135 -5 31 -8 24 -24 -60z m30 -373 c4 -4 -4 -6 -19 -5 -14 1 -24 5 -21 9 5 9
31 6 40 -4z"/>
<path d="M10212 5893 l3 -328 45 -3 c25 -2 73 2 105 8 33 6 70 12 81 13 12 1
29 8 37 15 17 15 30 2 22 -21 -10 -26 62 -14 91 15 34 34 39 76 39 345 l0 223
-28 27 -27 28 -185 3 -185 3 2 -328z m358 -257 c0 -2 -8 -10 -17 -17 -16 -13
-17 -12 -4 4 13 16 21 21 21 13z"/>
<path d="M10485 5590 c-3 -5 -1 -10 4 -10 6 0 11 5 11 10 0 6 -2 10 -4 10 -3
0 -8 -4 -11 -10z"/>
<path d="M10218 5105 c-5 -5 -8 -156 -8 -337 l0 -328 165 0 c186 0 224 9 249
59 13 25 16 71 16 261 0 208 -2 235 -19 269 -11 20 -28 44 -38 52 -17 13 -17
13 -3 -6 11 -15 8 -14 -12 4 -25 22 -36 24 -185 28 -87 3 -161 2 -165 -2z"/>
<path d="M5782 3469 c-6 -30 -27 -130 -47 -223 -19 -93 -35 -173 -35 -177 0
-22 157 -1 212 27 39 20 98 83 115 123 21 48 34 138 27 183 -8 46 -52 93 -97
103 -18 3 -62 9 -98 12 l-66 5 -11 -53z"/>
<path d="M8952 3329 c-62 -40 -102 -163 -78 -237 4 -13 23 -30 41 -37 91 -39
185 59 185 193 0 56 -12 77 -51 91 -44 15 -59 14 -97 -10z"/>
<path d="M2984 3325 c-36 -28 -59 -75 -51 -105 3 -11 1 -18 -3 -15 -5 3 -14
-11 -20 -30 -13 -38 -1 -94 25 -115 19 -16 71 -16 100 0 19 10 22 17 15 36 -9
22 -8 23 11 11 17 -10 23 -9 40 11 45 56 51 180 9 214 -32 26 -89 23 -126 -7z
m4 -170 c-7 -8 -38 23 -38 38 0 6 10 2 22 -10 12 -13 19 -25 16 -28z m42 -26
c0 -14 -17 -10 -23 5 -4 10 -1 13 9 9 7 -3 14 -9 14 -14z"/>
<path d="M4894 3331 c-73 -45 -114 -221 -63 -272 40 -40 128 -1 141 62 3 19
14 71 23 117 9 46 14 90 11 98 -8 20 -75 18 -112 -5z"/>
<path d="M6360 3342 c-31 -15 -80 -72 -80 -93 0 -5 43 -9 95 -9 l95 0 0 38 c0
64 -51 94 -110 64z"/>
<path d="M8037 3329 c-35 -26 -65 -84 -77 -149 -19 -102 16 -153 89 -131 51
15 58 25 76 107 35 160 37 176 23 185 -24 16 -82 9 -111 -12z"/>
<path d="M3420 2776 c0 -2 8 -10 18 -17 15 -13 16 -12 3 4 -13 16 -21 21 -21
13z"/>
<path d="M1380 9453 c0 -6 8 -17 18 -24 16 -13 16 -13 2 6 -8 11 -16 22 -17
24 -2 2 -3 0 -3 -6z"/>
<path d="M592 9154 c-7 -8 -8 -14 -3 -14 10 0 25 19 20 25 -2 1 -10 -3 -17
-11z"/>
<path d="M12320 6771 c0 -6 4 -13 10 -16 6 -3 7 1 4 9 -7 18 -14 21 -14 7z"/>
<path d="M1940 4843 c-141 -65 -266 -127 -271 -135 -3 -5 -9 -9 -13 -8 -4 1
-27 -11 -51 -27 -55 -35 -65 -73 -38 -153 16 -50 22 -56 58 -67 22 -6 90 -12
152 -12 196 -2 215 22 212 263 0 80 -4 148 -8 150 -4 3 -22 -3 -41 -11z"/>
<path d="M46 4178 c3 -5 10 -6 15 -3 13 9 11 12 -6 12 -8 0 -12 -4 -9 -9z"/>
<path d="M3 4153 c-3 -8 -3 -17 1 -20 3 -4 6 1 6 11 0 9 4 15 9 11 5 -3 12 -2
15 3 3 5 -2 9 -10 9 -9 0 -18 -7 -21 -14z"/>
<path d="M160 4110 c-14 -4 -19 -8 -12 -9 8 -1 10 -6 6 -13 -6 -10 -5 -10 8
-1 8 7 17 11 20 8 3 -3 11 1 18 10 14 17 3 19 -40 5z"/>
<path d="M119 4093 c-1 -4 -1 -12 1 -18 1 -5 -4 -5 -11 2 -8 8 -18 9 -31 2
-10 -5 -18 -6 -18 -2 0 4 -7 -2 -16 -13 -8 -10 -12 -13 -9 -6 6 11 3 11 -14 0
-12 -7 -21 -23 -21 -35 0 -34 46 -32 62 2 6 14 17 24 24 21 8 -3 16 -1 19 5 4
5 10 7 15 4 4 -3 10 4 13 15 3 11 1 23 -4 26 -5 3 -10 2 -10 -3z"/>
</g>
</svg>
